<svg xmlns="http://www.w3.org/2000/svg" viewBox="0 0 32 32" width="32" height="32">
  <!-- Background circle -->
  <circle cx="16" cy="16" r="15" fill="#4F46E5" stroke="#3730A3" stroke-width="1"/>
  
  <!-- Main icon: stylized "FYP" with refinement arrows -->
  <g fill="white">
    <!-- F -->
    <path d="M7 9h6v2h-4v2h3v2h-3v4h-2V9z"/>
    
    <!-- Y -->
    <path d="M16 9l-2 4v4h-2v-4l-2-4h2.2l0.8 2 0.8-2H16z"/>
    
    <!-- P with refinement arrow -->
    <path d="M18 9h3c1.1 0 2 0.9 2 2v1c0 1.1-0.9 2-2 2h-3v3h-2V9h2zm0 2v1h3v-1h-3z"/>
    
    <!-- Refinement arrow/sparkle -->
    <path d="M25 12l-1.5-1.5L25 9l1.5 1.5L25 12z" fill="#FCD34D"/>
    <circle cx="24" cy="20" r="1" fill="#FCD34D"/>
    <circle cx="27" cy="18" r="0.5" fill="#FCD34D"/>
  </g>
</svg>